<?xml version="1.0" encoding="UTF-8"?>
<svg width="256px" height="256px" viewBox="0 0 256 256" version="1.1" xmlns="http://www.w3.org/2000/svg" xmlns:xlink="http://www.w3.org/1999/xlink">
    <title>Group</title>
    <g id="Page-1" stroke="none" stroke-width="1" fill="none" fill-rule="evenodd">
        <g id="Group" fill-rule="nonzero">
            <rect id="Rectangle" fill="#FFFFFF" x="0" y="0" width="256" height="256" rx="45"></rect>
            <path d="M166.73,209.97275 L166.73275,209.974 L166.73575,209.97525 C180.00375,215.5585 191.3015,218.375 200.6095,218.375 C209.2105,218.375 217.52525,216.26025 225.547,212.04125 C235.12975,207.111 240.08775,200.675 240.08775,192.69775 C240.08775,189.76075 238.91775,186.3125 236.66925,182.37775 C234.69,178.56575 232.39075,175.878 229.7395,174.406 L228.91325,175.29475 C233.90275,182.9135 236.331,189.26075 236.331,194.36775 C236.331,198.3225 234.65475,201.2475 231.26275,203.22225 C227.81875,205.2275 222.57225,206.269 215.4405,206.269 C208.25625,206.269 199.87725,205.233 190.2975,203.15175 C180.867,201.0725 170.17575,197.743 158.22125,193.1585 C158.22075,193.15825 158.22025,193.15825 158.22,193.158 L102.5835,171.534 C104.79625,168.51525 107.0085,165.31575 109.21975,161.93575 C111.727,158.177 114.30375,154.2795 116.95,150.24275 L116.95325,150.23775 L116.9565,150.2325 L122.50325,141.404 C124.376,140.47175 125.9785,139.74025 127.3125,139.207 L127.326,139.2015 L127.339,139.19575 C128.86875,138.50075 130.11775,137.946 131.0865,137.531 L131.0905,137.52925 L131.09425,137.52775 C133.61375,136.4085 136.0635,135.21925 138.444,133.95975 C140.8075,132.70925 143.10075,131.5285 145.32425,130.4175 L145.3265,130.41625 L145.329,130.415 C169.23775,118.22375 187.21175,106.308 199.21675,94.6595 C211.218,83.015 217.31875,71.5725 217.31875,60.33825 C217.31875,54.92275 215.747,50.3865 212.5715,46.77775 C209.37825,43.0085 205.09,41.13275 199.77375,41.13275 C187.0305,41.13275 174.697,47.01025 162.78175,58.63825 L162.7805,58.63975 L162.779,58.641 C150.99625,70.27675 140.3035,88.03975 130.67875,111.879 L130.67875,111.87925 L125.03875,125.86625 C123.579,129.47925 122.33075,132.37175 121.294,134.54775 C120.31075,136.61175 119.5375,137.98675 118.972,138.7255 C117.52525,139.24525 116.2145,139.63425 115.0385,139.8955 C113.98775,140.12875 113.0515,140.2585 112.2265,140.29025 C114.871,135.01225 117.6335,128.44975 120.5145,120.608 C124.30825,117.014 127.18,113.79425 129.112,110.9505 C131.05375,108.0925 132.09225,105.54775 132.09225,103.34475 C132.09225,102.39625 131.94975,101.5795 131.58175,100.9815 C131.18275,100.33375 130.55725,100.00575 129.796,100.00575 C129.20075,100.00575 128.51025,100.173 127.746,100.464 C127.3165,100.6275 126.85225,100.83475 126.35375,101.08375 C128.41225,92.638 129.906,84.44025 130.834,76.49075 C131.951,67.978 132.51,59.81 132.51,51.9875 C132.51,45.84925 132.02375,41.24225 131.01575,38.21975 L130.94775,38.01625 L130.76925,37.8975 L130.14275,37.47975 L129.98525,37.375 L129.796,37.375 C129.242,37.375 128.98675,37.82475 128.88975,38.1155 C128.78775,38.422 128.75325,38.81675 128.75325,39.2525 L128.75325,40.714 L128.75325,40.8155 L128.7855,40.91175 C128.89875,41.25125 128.96225,41.669 128.96225,42.17525 C128.96225,46.89525 128.82325,51.89475 128.54525,57.17375 C128.26725,62.45275 127.85025,67.941 127.294,73.63875 L127.294,73.6395 C126.59925,80.861 125.69725,86.958 124.5905,91.9355 L124.58875,91.9435 L124.587,91.95175 C123.75475,96.22925 122.87525,99.72375 121.9515,102.445 C121.04525,100.85425 120.136,99.5915 119.219,98.675 C118.0765,97.53325 116.865,96.87425 115.59175,96.87425 C115.0635,96.87425 114.5845,97.04675 114.18225,97.38775 C113.7915,97.719 113.502,98.18425 113.28675,98.73175 C112.86,99.81725 112.669,101.3735 112.669,103.34475 C112.669,106.22625 113.38825,109.5725 114.79525,113.37025 C115.4915,115.3185 116.0495,116.852 116.46875,117.96925 L116.47375,117.98275 L116.4795,117.996 L116.9495,119.092 L117.05075,119.328 C117.02025,119.724 116.84425,120.428 116.465,121.49375 C116.05525,122.64575 115.436,124.1465 114.60375,126.001 C112.96875,129.64375 110.5265,134.61625 107.27375,140.92325 C95.41375,140.8615 84.5095,137.89775 74.54875,132.03375 L74.546,132.032 L74.543,132.03025 C62.56725,125.15175 56.6835,116.217 56.6835,105.2235 C56.6835,100.23825 57.81,96.14125 60.02175,92.8925 C62.232,89.646 65.56125,87.19475 70.0585,85.5605 L70.18875,85.513 L70.28675,85.415 C70.58475,85.11725 70.679,84.7215 70.679,84.34675 C70.679,84.0415 70.60225,83.69775 70.339,83.435 C70.076,83.172 69.7325,83.0955 69.42725,83.0955 C68.83625,83.0955 68.1615,83.3765 67.4495,83.80175 C54.90925,90.425 48.54,99.72675 48.54,111.6955 C48.54,123.0475 53.389,131.60525 63.05275,137.2865 C72.50125,142.84125 86.516,145.62775 105.0175,145.721 C103.554,148.90825 101.68225,152.276 99.39925,155.825 C96.969,159.6035 94.1425,163.64775 90.9185,167.95825 C75.069,162.89025 62.0495,160.33975 51.8805,160.33975 C42.8895,160.33975 35.125,162.09475 28.6105,165.63175 C24.503625,167.7555 21.38625,170.37625 19.29625,173.5095 C17.202325,176.6485 16.1623,180.2685 16.1623,184.347 C16.1623,190.32175 19.456125,195.57 25.82525,200.0965 L25.8265,200.0975 C31.62625,204.19725 37.6685,206.2665 43.94275,206.2665 C55.34025,206.2665 65.76275,203.241 75.19575,197.1905 C78.7125,194.941 82.49925,191.996 86.5555,188.3615 C90.52825,184.80175 94.696,180.511 99.058,175.49275 C102.0595,176.74025 106.0825,178.62375 111.13225,181.147 C116.553,183.9255 123.08925,187.46975 130.74275,191.781 L130.74475,191.782 L130.74675,191.78325 C138.54925,196.1 145.4505,199.723 151.4495,202.65125 C157.4425,205.7155 162.53675,208.15675 166.73,209.97275 Z M209.90525,50.85825 L209.91125,50.86175 L209.91725,50.865 C211.227,51.585 212.18225,52.4855 212.813,53.55725 C213.444,54.62925 213.771,55.90775 213.771,57.4155 C213.771,62.84 210.813,69.41675 204.7135,77.1755 C198.62675,84.918 189.47525,93.757 177.23825,103.694 C166.25025,112.5905 156.3145,119.81175 147.4295,125.3615 C139.26075,130.464 131.93225,134.206 125.44075,136.59925 C128.658,131.494 131.473,126.8475 133.88525,122.6605 C136.669,118.07 138.96775,114.17125 140.781,110.9655 C153.2325,90.10975 164.517,74.5015 174.63275,64.11475 C184.7715,53.704 193.63275,48.646 201.236,48.646 C204.479,48.646 207.36325,49.3875 209.90525,50.85825 Z M88.08775,171.1205 C87.2105,172.40625 86.13275,173.74825 84.85125,175.14625 C83.3315,176.66475 81.60375,178.3225 79.66775,180.1195 L74.66725,184.28425 C73.00275,185.6705 71.26825,187.05725 69.464,188.4445 L70.05025,189.53025 C73.302,188.39975 76.47875,186.847 79.5805,184.87425 C82.70075,182.89 85.6005,180.34325 88.2815,177.24075 C88.28175,177.2405 88.282,177.24025 88.28225,177.24 L92.1745,172.7665 C93.30775,173.20025 94.40075,173.7135 95.45425,174.30575 C91.0275,180.1195 83.67,185.72425 73.317,191.09925 C62.63675,196.64425 53.54925,199.37975 46.03175,199.37975 C40.16225,199.37975 34.85125,197.813 30.082,194.681 C24.5023,191.0085 21.798975,186.523 21.798975,181.2155 C21.798975,175.2775 25.3325,170.58525 32.7165,167.16875 L32.71675,167.16875 C38.331,164.5685 44.784,163.26 52.0895,163.26 C59.66175,163.26 71.64425,165.862 88.08775,171.1205 Z M94.82175,169.39225 L110.34125,144.817 C112.72375,144.287 114.54125,143.86975 115.7915,143.56575 C115.95775,143.5255 116.11425,143.487 116.261,143.4505 C111.44875,151.00175 107.5195,157.036 104.47225,161.555 C101.4545,166.03025 99.32125,168.99025 98.05725,170.47025 L94.82175,169.39225 Z" id="Shape" fill="#20958D"></path>
            <path d="M52.0895,162.635 C59.7674209,162.635 71.8309773,165.265533 88.2781225,170.525199 L89.0763633,170.78047 L88.6040295,171.472751 C87.7066816,172.787957 86.6092938,174.153317 85.3119713,175.568578 L85.2930099,175.588374 C83.7667784,177.11335 82.0333479,178.77649 80.0929412,180.57758 L80.067733,180.599748 L75.0672233,184.764507 C73.3971535,186.155395 71.6563805,187.547211 69.8449597,188.939974 L70.26605,188.61475 L70.34555,188.76175 L70.464125,188.719154 C73.3492392,187.664647 76.1772795,186.269683 78.948426,184.534114 L79.2451169,184.346857 C82.3082109,182.398954 85.162673,179.894018 87.8086039,176.832101 L87.81055,176.82975 L91.702989,172.356253 L91.9898138,172.026595 L92.3979125,172.182795 C93.558471,172.626997 94.6792486,173.153072 95.7605282,173.760939 L96.386633,174.112919 L95.9515092,174.684377 C91.4454334,180.602307 83.9967475,186.258823 73.6049885,191.653946 C62.8819525,197.22116 53.6910635,200.00475 46.03175,200.00475 C40.0439109,200.00475 34.6130288,198.40428 29.7383823,195.203065 C24.027643,191.444316 21.173975,186.781604 21.173975,181.2155 C21.173975,174.954556 24.9314514,170.082152 32.4540505,166.601524 L32.5789162,166.54375 L32.5803,166.5435 L32.6958308,166.490676 C38.2674314,163.956968 44.6281995,162.671984 51.7781359,162.635787 L52.0895,162.635 Z M52.0895,163.885 C44.8833843,163.885 38.5170518,165.17111 32.9794154,167.735876 L32.93755,167.755 L32.7666543,167.835064 C25.8676435,171.083425 22.4924888,175.458052 22.4250078,181.044119 L22.423975,181.2155 C22.423975,186.332835 25.0470963,190.618849 30.4250771,194.15858 C35.093916,197.224639 40.2860491,198.75475 46.03175,198.75475 C53.4628325,198.75475 62.4691065,196.027073 73.0290156,190.544552 C82.8608275,185.440139 89.9887133,180.121711 94.4174557,174.616275 L94.5073,174.5035 L94.3699416,174.431713 C93.7593397,174.117291 93.1359598,173.829349 92.4996575,173.567861 L92.3558,173.50975 L88.7543961,177.649399 C86.1007529,180.720242 83.2356571,183.253538 80.15923,185.245488 L79.9159152,185.401622 C76.7721232,187.401112 73.551735,188.974621 70.2554874,190.120591 L69.7530351,190.295273 L69.5002975,189.827197 L68.9140475,188.741447 L68.6612776,188.27331 L69.0830403,187.949026 C70.8817494,186.566036 72.6098475,185.184355 74.267267,183.804002 L79.2548,179.65 L79.4930804,179.42858 C81.2385057,177.804199 82.8111848,176.295296 84.2107325,174.902332 L84.3983,174.71475 L84.5778418,174.518362 C85.5069676,173.492585 86.3244937,172.497192 87.0304777,171.532966 L87.0853,171.45725 L86.9226403,171.405548 C71.2492769,166.440524 59.6933764,163.93637 52.3163238,163.885782 L52.0895,163.885 Z M117.62947,142.466089 L116.78807,143.78639 C112.652873,150.275227 109.168305,155.646112 106.333914,159.899715 L106.081825,160.277648 C105.7063,160.840068 105.342507,161.382327 104.990444,161.904428 C101.978663,166.370826 99.8245922,169.363267 98.53251,170.876148 L98.2591001,171.196279 L97.8596901,171.063205 L94.6241901,169.985205 L93.8673442,169.73304 L94.2933028,169.058531 L109.812803,144.483281 L109.951668,144.263387 L110.205533,144.206913 C112.584672,143.677661 114.398471,143.261256 115.644433,142.958299 C115.800456,142.920525 115.95459,142.882669 116.110145,142.843979 L117.62947,142.466089 Z M114.90055,144.42075 L114.797694,144.44519 C113.743108,144.692588 112.430151,144.99153 110.859001,145.341988 L110.73055,145.3705 L95.77605,169.05125 L97.8508,169.74275 L97.8907193,169.69438 C99.1536901,168.149584 101.143525,165.368696 103.838141,161.37737 L103.954056,161.205572 C106.803211,156.980342 110.425334,151.427341 114.820036,144.547049 L114.90055,144.42075 Z M210.356433,50.394552 C211.680181,51.1480431 212.678675,52.0967645 213.351618,53.2402087 C214.047861,54.4230485 214.396,55.8147244 214.396,57.4155 C214.396,63.0521204 211.332275,69.7674929 205.204845,77.5617702 C199.077938,85.3553512 189.887227,94.227571 177.631538,104.179747 C166.628964,113.088047 156.67228,120.325177 147.760611,125.891586 C139.56906,131.008328 132.201156,134.772983 125.656947,137.185666 L123.93159,137.821761 L124.911987,136.266032 C128.125195,131.167195 130.935932,126.527713 133.350835,122.336423 C136.13047,117.752709 138.426493,113.858684 140.244365,110.645113 C152.706569,89.7714346 164.020087,74.1159236 174.184998,63.6786961 C184.35092,53.2400446 193.367974,48.021 201.236,48.021 C204.578395,48.021 207.572416,48.7864467 210.218249,50.3172724 L210.2128,50.31425 L210.218249,50.3172724 L210.356433,50.394552 Z M201.236,49.271 C193.775089,49.271 185.033908,54.3303707 175.080494,64.5508121 C164.994009,74.9075128 153.734028,90.4889392 141.325007,111.273204 C139.50761,114.486285 137.205389,118.390821 134.426802,122.972504 C132.320099,126.629159 129.90735,130.634693 127.188742,134.988883 L126.96505,135.3465 L127.15863,135.269525 C133.034047,132.92181 139.567971,129.513972 146.755632,125.04502 L147.098395,124.831411 C155.963223,119.29426 165.879567,112.086451 176.844262,103.208821 C189.033053,93.3109689 198.160456,84.4998641 204.222154,76.7892308 C210.192498,69.1947715 213.146,62.7209954 213.146,57.4155 C213.146,56.0294485 212.852613,54.8566438 212.274359,53.8742529 C211.69688,52.89302 210.818774,52.0737999 209.619573,51.4145575 L209.596331,51.4016118 L209.590331,51.3981118 L209.435366,51.3096751 C207.022971,49.9512779 204.296958,49.271 201.236,49.271 Z M73.8700254,132.362781 C61.9943475,125.430122 56.0585,116.383098 56.0585,105.2235 C56.0585,100.143167 57.2074045,95.9157849 59.5051156,92.5407701 C61.8028187,89.1658157 65.2494081,86.6430829 69.8443677,84.9733268 C69.9845845,84.8333992 70.054,84.6245106 70.054,84.34675 C70.054,84.1383257 70.0020069,83.9816914 69.8970583,83.8769417 C69.7925029,83.7723864 69.6359394,83.7205 69.42725,83.7205 C69.0125983,83.7205 68.4601441,83.9261213 67.7699786,84.3383303 L67.741389,84.3544034 C55.3584871,90.8945486 49.165,100.007731 49.165,111.6955 C49.165,122.829611 53.899849,131.18057 63.3695024,136.747712 C72.6777381,142.220001 86.5614654,145.002971 105.02065,145.096008 L105.989975,145.100893 L105.585485,145.981803 C104.107573,149.200439 102.220776,152.594091 99.9249097,156.163093 C97.4850184,159.956583 94.6497338,164.013079 91.4189942,168.33259 L91.1522866,168.689179 L90.728146,168.553557 C74.9058654,163.494261 61.9567066,160.96475 51.8805,160.96475 C42.971009,160.96475 35.3136426,162.703507 28.8975865,166.186913 C24.861803,168.2739 21.834643,170.830335 19.8161852,173.856332 C17.7968992,176.883441 16.7873,180.380414 16.7873,184.347 C16.7873,190.054363 19.9218619,195.134234 26.1873113,199.587053 L26.1908,199.58975 L26.384238,199.725513 C31.9673951,203.623521 37.7498157,205.59537 43.7315473,205.6407 L43.94275,205.6415 C55.2227688,205.6415 65.5277988,202.649183 74.858971,196.663997 C78.3401061,194.437279 82.0999037,191.514633 86.138416,187.896026 C90.0880817,184.356961 94.2376848,180.085572 98.5862926,175.082729 L98.8818511,174.742705 L99.2978725,174.915614 C102.317974,176.170845 106.355153,178.061308 111.417336,180.590807 C116.847409,183.374085 123.391144,186.922469 131.049496,191.236453 L131.451739,191.458837 C139.082505,195.673967 145.840047,199.217666 151.73403,202.094772 C157.720593,205.155731 162.801908,207.59049 166.978381,209.399224 L166.9808,209.4 L167.37446,209.56536 C180.300309,214.966729 191.286365,217.694607 200.333163,217.75 L200.6095,217.75 C209.103331,217.75 217.318757,215.662682 225.261067,211.485492 C234.726483,206.615609 239.46275,200.353741 239.46275,192.69775 C239.46275,189.916683 238.35072,186.579926 236.126602,182.687844 L236.114562,182.665753 C234.296497,179.164194 232.236069,176.690952 229.933282,175.246262 L229.8558,175.1985 L229.70305,175.36275 L229.733884,175.410204 C234.499369,182.789488 236.906617,189.05579 236.955248,194.208736 L236.956,194.36775 C236.956,198.543245 235.162976,201.674823 231.57723,203.762368 C227.991279,205.850268 222.612418,206.894 215.4405,206.894 C208.19919,206.894 199.774025,205.850154 190.162931,203.762091 C180.694235,201.67442 169.972396,198.334398 157.997457,193.74206 L158.0538,193.7635 C158.048254,193.758302 158.034981,193.74981 158.011461,193.735696 L157.99855,193.728 L157.993566,193.740356 L158.0003,193.74325 L157.997457,193.74206 L157.969001,193.731147 L157.9673,193.73025 L102.357084,172.116547 L101.597865,171.821465 L102.079417,171.164506 C104.286208,168.153886 106.492161,164.963376 108.699809,161.588927 C111.210763,157.824624 113.786816,153.928054 116.425973,149.902132 L116.427282,149.900004 L121.974032,141.071504 L122.067479,140.922769 L122.224728,140.844491 C124.10645,139.907775 125.725351,139.168359 127.076689,138.628192 L127.073184,138.629915 L127.080478,138.626723 C128.610582,137.931563 129.864735,137.374454 130.835988,136.958402 L130.8463,136.95375 L131.417709,136.69838 C133.52956,135.747144 135.591574,134.746123 137.604074,133.69517 L138.15171,133.407309 C140.521676,132.153387 142.819088,130.970559 145.044892,129.858408 L145.03855,129.86125 L145.046992,129.857233 C168.928098,117.680082 186.840225,105.797634 198.781525,94.2109416 C210.722415,82.6250075 216.69375,71.3341142 216.69375,60.33825 C216.69375,55.0521188 215.163385,50.6693622 212.094626,47.1817502 C209.031076,43.5655957 204.923926,41.75775 199.77375,41.75775 C187.240168,41.75775 175.05497,47.5342044 163.218267,59.0855506 L162.867542,59.4340969 C151.307505,70.9915873 140.771005,88.5512519 131.258298,112.112984 L131.30375,112.000516 L131.2584,112.112983 L125.61824,126.10038 C124.157323,129.716268 122.903447,132.62281 121.858246,134.816546 C120.87758,136.875123 120.07932,138.307167 119.468288,139.105399 L119.356457,139.251491 L119.183311,139.313694 C117.718326,139.839995 116.381727,140.237337 115.173943,140.505648 C114.096123,140.744907 113.121687,140.881262 112.250535,140.914788 L111.194148,140.955443 L111.667716,140.010276 C114.298555,134.759542 117.052043,128.220054 119.92784,120.392466 L119.978345,120.254996 L120.084665,120.154275 C123.861276,116.576511 126.697995,113.391547 128.595029,110.599265 C130.509847,107.780905 131.46725,105.362711 131.46725,103.34475 C131.46725,102.440184 131.327884,101.761494 131.049605,101.30929 C130.770835,100.856725 130.352899,100.63075 129.796,100.63075 C129.308585,100.63075 128.699138,100.769852 127.968356,101.048109 C127.562861,101.20247 127.118006,101.400637 126.633034,101.642879 L125.427397,102.245093 L125.746526,100.93575 C127.799557,92.5124391 129.288462,84.3399737 130.214312,76.4094377 C131.328101,67.9211555 131.885,59.7804065 131.885,51.9875 C131.885,45.8628886 131.397505,41.3399868 130.422969,38.4178292 L129.796634,38.0001622 C129.655647,38.0001622 129.551564,38.1066595 129.482774,38.3128521 C129.413222,38.5218493 129.37825,38.8351115 129.37825,39.2525 L129.37805,40.713 C129.506926,41.099321 129.576128,41.5440401 129.586014,42.0480204 L129.58725,42.17525 C129.58725,46.9065386 129.447946,51.9169627 129.169385,57.2066179 C128.89082,62.4963467 128.47305,67.9939675 127.916043,73.6994777 L127.9188,73.66825 L127.916128,73.6993523 C127.219848,80.9367523 126.314667,87.0607484 125.201063,92.0690605 L125.200146,92.0731901 C124.36561,96.3621624 123.479812,99.8871473 122.543331,102.645902 L122.096516,103.962159 L121.408444,102.754379 C120.51952,101.194042 119.642176,99.981588 118.777203,99.1170868 C117.69846,98.039052 116.636577,97.49925 115.59175,97.49925 C115.208769,97.49925 114.873658,97.6209794 114.586401,97.864496 C114.299228,98.1079414 114.059924,98.4733086 113.868414,98.9604236 C113.485505,99.9344084 113.294,101.395234 113.294,103.34475 C113.294,106.127417 113.989793,109.397131 115.383796,113.15992 C116.079349,115.10622 116.636188,116.636499 117.054843,117.752179 L117.053911,117.749674 L117.523871,118.84558 L117.625121,119.08158 L117.685704,119.222791 L117.673904,119.375995 C117.635907,119.869341 117.428817,120.649512 117.05386,121.703199 C116.636584,122.876357 116.010238,124.393426 115.173949,126.256926 C113.532319,129.914448 111.084308,134.89821 107.829227,141.20973 L107.653615,141.550236 L107.270496,141.548242 C95.3031917,141.485933 84.2901984,138.493909 74.2132028,132.561038 L74.2148,132.562 L74.22905,132.5705 L73.8700254,132.362781 Z M166.481619,210.546276 C163.162933,209.109029 159.282831,207.282039 154.844763,205.067341 L154.249714,204.76975 C153.252457,204.269938 152.227653,203.750983 151.175341,203.21291 C145.16758,200.280384 138.257565,196.652901 130.444186,192.330132 L130.4423,192.329 L130.436004,192.325547 C122.908548,188.085299 116.462307,184.587344 111.103293,181.834579 L110.852885,181.706089 C106.071763,179.317066 102.211006,177.501706 99.2741613,176.26101 L99.23255,176.2435 L98.9593789,176.556029 C94.8799751,181.207965 90.9714902,185.22032 87.2331201,188.592732 L86.9725796,188.826978 C82.8867764,192.487958 79.0747055,195.451238 75.5331878,197.716581 C66.0003436,203.831122 55.4609257,206.8915 43.94275,206.8915 C37.5473116,206.8915 31.3795363,204.788237 25.4657319,200.607864 L25.46005,200.60375 L25.2670117,200.46561 C18.8900976,195.873745 15.6040406,190.546682 15.5373,184.531358 L15.5373,184.347 C15.5373,180.138946 16.6167295,176.400099 18.7763079,173.162678 C20.9197235,169.94935 24.1091851,167.255851 28.3122813,165.082486 C34.9107647,161.499888 42.7723894,159.71475 51.8805,159.71475 C62.1051847,159.71475 75.1738715,162.267609 91.108854,167.362943 L90.68405,167.2275 L90.7090827,167.194011 C93.7056252,163.172585 96.3533579,159.384438 98.6522319,155.830107 L98.8736145,155.486869 C100.926589,152.295452 102.645337,149.251037 104.030386,146.354406 L104.0378,146.33825 L103.900227,146.337073 C85.9772657,146.139906 72.3558804,143.373267 63.0232695,137.992537 L62.7359995,137.825289 C52.8827951,132.032661 47.915,123.27085 47.915,111.6955 C47.915,99.5158214 54.3857467,89.9946758 67.157611,83.2490966 L67.1408,83.258 L67.2367049,83.2017328 C68.0217959,82.7457495 68.7067029,82.4930524 69.341056,82.4719408 L69.42725,82.4705 C69.9417274,82.4705 70.4153438,82.6274603 70.7805214,82.9926384 C71.1466314,83.358053 71.304,83.8321411 71.304,84.34675 C71.304,84.9306176 71.1291328,85.4568367 70.7286917,85.8569417 L70.6306917,85.9549417 L70.5328615,86.0527719 L70.4028823,86.1001732 L70.2719609,86.1479176 C65.9121732,87.7322153 62.6807282,90.097473 60.5383867,93.2442264 C58.3909072,96.3985721 57.3085,100.381278 57.3085,105.2235 C57.3085,116.015925 63.1031425,124.738792 74.8579194,131.490388 L74.8808,131.50425 L74.8658278,131.495153 C84.5354665,137.187773 95.0975935,140.118616 106.57327,140.291142 L106.89405,140.295 L106.994492,140.100611 C110.056873,134.149812 112.380159,129.415699 113.963152,125.901635 L114.033538,125.745104 C114.857276,123.90957 115.471683,122.42142 115.876171,121.284214 C116.168222,120.463507 116.344578,119.839052 116.406289,119.45298 L116.4108,119.42175 L116.375089,119.338326 L115.906159,118.244808 L115.900409,118.231558 L115.887657,118.199821 L115.883593,118.188831 C115.46319,117.068508 114.90428,115.53254 114.209178,113.587379 C112.769861,109.702397 112.044,106.291389 112.044,103.34475 C112.044,101.252489 112.25402,99.6504257 112.705088,98.5030694 C112.966936,97.8370453 113.318001,97.3010421 113.778098,96.9110047 C114.292251,96.4751407 114.914109,96.24925 115.59175,96.24925 C117.008557,96.24925 118.366676,96.9396418 119.660821,98.2329378 C120.341381,98.9131269 121.015806,99.7707776 121.688271,100.80677 L121.7783,100.94675 L121.823747,100.798542 C122.552501,98.4032467 123.252513,95.501922 123.922752,92.0922969 L123.975604,91.8220599 L123.978187,91.8099395 L123.9804,91.7998438 C125.082248,86.8443885 125.980162,80.7695556 126.671872,73.5796477 L126.6688,73.6105 L126.671957,73.5780223 C127.227189,67.8907018 127.643549,62.4116288 127.921115,57.1408821 C128.198554,51.8725373 128.33725,46.8839614 128.33725,42.17525 C128.33725,41.7460456 128.286516,41.391015 128.192882,41.1103157 L128.160632,41.0140657 L128.12825,40.9174232 L128.12825,39.2525 C128.12825,38.7126758 128.176677,38.2788833 128.296874,37.9177047 C128.517331,37.2569028 129.011989,36.75 129.796,36.75 L130.17411,36.75 L130.331366,36.8545876 L130.489486,36.9597505 L131.115433,37.3771324 L131.472543,37.6147056 L131.540531,37.8181708 L131.608648,38.0220194 C132.634762,41.0988367 133.135,45.7399582 133.135,51.9875 C133.135,59.8361265 132.574394,68.0310682 131.454784,76.5632185 C130.570505,84.1381974 129.174278,91.9380265 127.26646,99.9628095 L127.2613,99.98325 L127.373407,99.9382394 L127.523598,99.8799089 C128.38462,99.5520616 129.135187,99.38075 129.796,99.38075 C130.780474,99.38075 131.60409,99.8260749 132.114036,100.653939 C132.533772,101.336009 132.71725,102.229517 132.71725,103.34475 C132.71725,105.654511 131.671926,108.294774 129.628977,111.301726 C127.675021,114.177793 124.781133,117.426945 120.944335,121.061725 L121.05055,120.9605 L120.963591,121.197254 C118.30568,128.403686 115.749209,134.519179 113.29221,139.545775 L113.2783,139.57375 L113.303815,139.570657 C113.747218,139.513393 114.217777,139.431993 114.715177,139.326193 L114.90296,139.285374 C116.05602,139.02922 117.342776,138.646696 118.760689,138.137306 L118.58305,138.2005 L118.592945,138.187016 C119.114657,137.458351 119.813847,136.191404 120.664069,134.416459 L120.729769,134.278923 C121.762616,132.111114 123.007045,129.226471 124.4591,125.632517 L130.05355,111.75825 L130.099202,111.645016 C139.76666,87.6999828 150.504601,69.8838776 162.339841,58.1962929 L162.31905,58.21675 L162.322208,58.2134194 L162.345233,58.1909494 C174.40029,46.4265123 186.885682,40.50775 199.77375,40.50775 C205.282906,40.50775 209.741379,42.4702377 213.040709,46.3648722 C216.310369,50.0806296 217.94375,54.7584078 217.94375,60.33825 C217.94375,71.7177877 211.814715,83.3068683 199.651981,95.1080516 C187.608502,106.793889 169.597854,118.741693 145.608508,130.974017 L145.606008,130.975267 L145.603608,130.976592 C143.386649,132.084324 141.097845,133.262721 138.736291,134.512191 C136.343104,135.778404 133.880495,136.973898 131.326369,138.108048 L131.341012,138.101848 L131.33261,138.105504 C130.366375,138.519427 129.120048,139.073059 127.591816,139.767335 L127.561811,139.780308 L127.544488,139.78735 C126.22419,140.315123 124.635195,141.04088 122.781772,141.963509 L122.93855,141.8855 L117.487916,150.561472 L117.477277,150.578368 L117.4727,150.585401 C114.830414,154.616105 112.252524,158.515454 109.742767,162.277916 C107.772554,165.28948 105.800718,168.159385 103.827573,170.887217 L103.5673,171.24575 L158.3878,192.5525 C158.391741,192.552431 158.407814,192.5589 158.434343,192.570353 L158.4428,192.57375 L158.446416,192.575453 L158.4488,192.57625 L158.897107,192.747936 C170.484586,197.172745 180.878103,200.410516 190.07257,202.461682 L190.430189,202.540998 C199.957696,204.610897 208.296145,205.644 215.4405,205.644 C222.411223,205.644 227.58581,204.639906 230.948296,202.682117 C234.148781,200.818863 235.706,198.099127 235.706,194.36775 C235.706,189.364367 233.282295,183.106883 228.390396,175.637166 L228.122228,175.227685 L228.455506,174.869197 L229.281756,173.980447 L229.614993,173.622003 L230.042882,173.859572 C232.78747,175.383394 235.17171,178.137192 237.223938,182.089747 L237.21805,182.0785 L237.323399,182.263926 C239.535541,186.181066 240.675064,189.602245 240.71275,192.55072 L240.71275,192.69775 C240.71275,200.877236 235.680393,207.530567 225.837931,212.594408 C217.723665,216.862067 209.309024,219 200.6095,219 C191.229757,219 179.864382,216.177936 166.495365,210.552173 L166.474123,210.542979 L166.481619,210.546276 Z" id="Shape" fill="#20958D"></path>
        </g>
    </g>
</svg>